<svg width="108" height="135" viewBox="0 0 108 135" fill="none" xmlns="http://www.w3.org/2000/svg">
<g clip-path="url(#clip0_1893_2167)">
<path d="M25.8807 42.3389C32.9854 41.2176 37.5543 32.7651 36.0857 23.4597C34.617 14.1543 27.667 7.51981 20.5624 8.6411C13.4577 9.7624 8.8888 18.2149 10.3574 27.5203C11.8261 36.8257 18.7761 43.4602 25.8807 42.3389Z" stroke="#4A9EFF" stroke-width="2" stroke-miterlimit="10"/>
<path d="M66.246 42.3384C73.3506 41.2171 77.9195 32.7646 76.4509 23.4592C74.9823 14.1538 68.0323 7.51932 60.9276 8.64061C53.8229 9.76191 49.254 18.2144 50.7227 27.5198C52.1913 36.8252 59.1413 43.4597 66.246 42.3384Z" stroke="#4A9EFF" stroke-width="2" stroke-miterlimit="10"/>
<path d="M76.6729 25.4902C76.6729 25.4902 106.499 -10.9448 106.499 14.8362" stroke="#4A9EFF" stroke-width="2" stroke-miterlimit="10"/>
<path d="M36.3096 25.4901C39.1946 19.1071 45.4776 18.9831 50.4956 25.4901" stroke="#4A9EFF" stroke-width="2" stroke-miterlimit="10"/>
<path d="M29.79 11.5568C38.602 2.87881 51.047 -6.42719 51.047 10.2258" stroke="#4A9EFF" stroke-width="2" stroke-miterlimit="10"/>
<path d="M69.0015 99.9958C69.1945 102.197 67.5665 104.137 65.3655 104.329L9.57853 109.21C7.37753 109.403 5.43753 107.775 5.24553 105.574L0.0155324 45.8018C-0.177468 43.6008 1.45053 41.6608 3.65153 41.4688L59.4385 36.5878C61.6395 36.3948 63.5795 38.0228 63.7715 40.2238L69.0015 99.9958Z" fill="#B3D4FF"/>
<path d="M88.9242 111.759L78.1172 83.4289C78.1172 83.4289 47.9622 73.4609 46.1032 77.7729C44.6752 81.0839 49.0352 85.3009 70.0242 91.1979" stroke="#4A9EFF" stroke-width="2" stroke-miterlimit="10"/>
<path d="M71.2362 133.385C71.2362 133.385 61.9222 127.319 60.5302 116.174C51.5322 114.597 35.0142 111.007 35.6952 106.246C36.4172 101.195 64.2832 107.844 64.2832 107.844" stroke="#4A9EFF" stroke-width="2" stroke-miterlimit="10"/>
<path d="M67.1542 99.5212C67.1542 99.5212 37.7692 93.0462 40.3322 86.6142C42.1492 82.0532 70.0242 91.1972 70.0242 91.1972" stroke="#4A9EFF" stroke-width="2" stroke-miterlimit="10"/>
<path d="M64.2828 107.844C64.2828 107.844 34.5448 102.146 36.7148 96.115C38.4608 91.264 67.1528 99.521 67.1528 99.521" stroke="#4A9EFF" stroke-width="2" stroke-miterlimit="10"/>
</g>
<defs>
<clipPath id="clip0_1893_2167">
<rect width="107.498" height="134.223" fill="white"/>
</clipPath>
</defs>
</svg>
