<svg width="337" height="178" viewBox="0 0 337 178" fill="none" xmlns="http://www.w3.org/2000/svg">
  <!-- Papers/documents in background -->
  <g fill="#E3F2FD">
    <!-- Paper 1 -->
    <path d="M212.105 28.867C211.916 28.116 212.369 27.354 213.116 27.165L235.696 21.444C236.443 21.254 237.202 21.71 237.39 22.46L243.557 47.028C243.745 47.778 243.292 48.54 242.545 48.73L219.977 54.448C219.23 54.638 218.472 54.183 218.284 53.432L212.105 28.867Z"/>
    
    <!-- Paper 2 -->
    <path d="M241.227 76.761C241.479 76.029 242.273 75.641 243.001 75.893L265.015 83.521C265.744 83.773 266.131 84.571 265.879 85.303L257.658 109.256C257.407 109.988 256.612 110.376 255.884 110.124L233.881 102.5C233.153 102.248 232.766 101.45 233.017 100.719L241.227 76.761Z"/>
    
    <!-- Paper 3 -->
    <path d="M261.839 40.765C261.801 39.992 262.394 39.334 263.163 39.296L286.422 38.141C287.192 38.103 287.846 38.698 287.884 39.471L289.13 64.777C289.168 65.551 288.575 66.208 287.805 66.247L264.559 67.401C263.79 67.439 263.135 66.844 263.096 66.071L261.839 40.765Z"/>
    
    <!-- More papers continue... -->
    <path d="M223.109 124.141C223.314 123.395 224.082 122.957 224.825 123.163L247.271 129.394C248.013 129.6 248.449 130.372 248.244 131.118L241.528 155.54C241.322 156.286 240.554 156.724 239.812 156.518L217.377 150.291C216.635 150.085 216.199 149.313 216.404 148.567L223.109 124.141Z"/>
    
    <!-- Left side papers -->
    <path d="M105.139 1.447C105.431 0.689 106.28 0.312 107.035 0.606L129.841 9.485C130.596 9.779 130.971 10.631 130.678 11.389L121.108 36.204C120.816 36.963 119.967 37.339 119.213 37.045L96.417 28.171C95.663 27.878 95.288 27.025 95.58 26.267L105.139 1.447Z"/>
    
    <path d="M68.962 79.46C68.926 78.647 69.553 77.96 70.361 77.925L94.797 76.848C95.605 76.812 96.289 77.442 96.325 78.254L97.485 104.841C97.521 105.653 96.894 106.341 96.086 106.376L71.663 107.452C70.855 107.488 70.171 106.859 70.135 106.047L68.962 79.46Z"/>
  </g>
  
  <!-- Character figure -->
  <g>
    <!-- Main body -->
    <rect x="137.337" y="39" width="60" height="127.894" fill="#36A0DA"/>
    
    <!-- Arms -->
    <path stroke="#63C8FF" stroke-width="2" fill="none" d="M138.337 78.869C110.808 96.242 109.921 92.847 135.658 120.395L126.773 131.2"/>
    <path stroke="#63C8FF" stroke-width="2" fill="none" d="M173.319 53.099L189.215 53.157C237.727 76.996 225.756 110.361 192.058 76.275"/>
    
    <!-- Eyes -->
    <circle cx="153.337" cy="60.895" r="2" fill="#010101"/>
    <circle cx="181.337" cy="60.895" r="2" fill="#010101"/>
    
    <!-- Legs -->
    <path stroke="#63C8FF" stroke-width="2" fill="none" d="M137.337 169.582V176.223H124.338"/>
    <path stroke="#63C8FF" stroke-width="2" fill="none" d="M197.338 169.582V176.223H210.337"/>
    
    <!-- Document in hand -->
    <rect x="181.337" y="69.645" width="16" height="28.079" fill="#36A0DA"/>
  </g>
  
  <!-- Ground line -->
  <path d="M8.788 177.577C14.803 177.593 20.818 177.6 26.832 177.607C35.808 177.617 44.784 177.624 53.76 177.63C65.056 177.638 76.351 177.645 87.647 177.651C100.436 177.658 113.225 177.665 126.015 177.671C139.692 177.679 153.368 177.687 167.045 177.695C180.825 177.704 194.604 177.714 208.383 177.726C221.478 177.737 234.572 177.75 247.667 177.766C259.473 177.78 271.28 177.797 283.087 177.818C292.775 177.836 302.463 177.857 312.151 177.887C319.085 177.909 326.02 177.932 332.954 177.975C334.133 177.983 335.312 177.991 336.491 178H8.788V177.577Z" fill="#E3F2FD"/>
</svg>