<svg width="159" height="42" viewBox="0 0 159 42" fill="none" xmlns="http://www.w3.org/2000/svg">
<path d="M18.4802 38.64L10.9202 36.12L4.2002 38.64V9.65998L18.4802 3.35999V38.64ZM24.3602 10.08C24.3602 13.86 27.3002 16.8 31.0802 16.8C34.8602 16.8 37.8002 13.86 37.8002 10.08C37.8002 6.29999 34.8602 3.35999 31.0802 3.35999C24.3602 3.35999 20.1602 11.76 20.1602 11.76L24.3602 10.08Z" fill="#2C73F3"/>
<path d="M51.8201 32H56.0201V25.56H59.9401L64.0001 32H68.7601L64.2801 25C66.8001 24.048 68.7601 22.032 68.7601 18.98C68.7601 15.34 65.8481 12.4 61.0601 12.4H51.8201V32ZM56.0201 21.64V16.32H60.9201C63.3001 16.32 64.4201 17.412 64.4201 18.98C64.4201 20.548 63.3001 21.64 60.9201 21.64H56.0201Z" fill="#151617"/>
<path d="M69.8954 24.86C69.8954 29.06 73.2274 32.42 77.5954 32.42C80.6754 32.42 82.4954 31.16 83.6154 29.9C84.2594 29.144 84.7074 28.304 85.0154 27.38H80.8154C80.6474 27.688 80.4234 27.968 80.1434 28.22C79.6114 28.64 78.8554 29.06 77.5954 29.06C75.7754 29.06 74.2634 27.52 73.9554 25.7H85.1554V24.86C85.1554 20.688 82.0754 17.3 77.5954 17.3C73.2274 17.3 69.8954 20.66 69.8954 24.86ZM74.0954 23.32C74.5154 21.892 75.7754 20.66 77.5954 20.66C79.4154 20.66 80.6754 21.92 80.9554 23.32H74.0954Z" fill="#151617"/>
<path d="M86.9644 28.08C86.9644 30.628 88.7564 32.42 92.0044 32.42C93.7684 32.42 94.9444 31.832 95.7004 31.244C96.1484 30.908 96.5124 30.516 96.7644 30.04H96.9044V32H100.824V23.04C100.824 19.54 98.5004 17.3 94.2444 17.3C91.2764 17.3 89.6524 18.56 88.6724 19.764C88.1124 20.492 87.7204 21.304 87.5244 22.2H91.5844C91.7244 21.892 91.8924 21.612 92.1164 21.36C92.5364 20.94 93.1524 20.52 94.2444 20.52C95.9244 20.52 96.9044 21.472 96.9044 23.04V23.46H92.7044C89.0364 23.46 86.9644 25.532 86.9644 28.08ZM91.0244 27.576C91.0244 26.68 91.8644 25.84 93.1804 25.84H96.9044C96.9044 27.828 95.5044 29.2 93.2644 29.2C91.6964 29.2 91.0244 28.5 91.0244 27.576Z" fill="#151617"/>
<path d="M103.067 24.86C103.067 29.48 106.007 32.42 109.647 32.42C111.215 32.42 112.279 31.86 113.035 31.3C113.455 30.964 113.819 30.6 114.127 30.18H114.267V32H118.187V12.4H114.267V19.54H114.127C113.819 19.12 113.455 18.756 113.035 18.42C112.279 17.86 111.215 17.3 109.647 17.3C106.007 17.3 103.067 20.24 103.067 24.86ZM107.127 24.86C107.127 22.172 108.639 20.66 110.627 20.66C112.755 20.66 114.267 22.172 114.267 24.86C114.267 27.548 112.755 29.06 110.627 29.06C108.639 29.06 107.127 27.548 107.127 24.86Z" fill="#151617"/>
<path d="M120.987 13.8C120.987 14.92 121.967 15.9 123.227 15.9C124.487 15.9 125.467 14.92 125.467 13.8C125.467 12.68 124.487 11.7 123.227 11.7C121.967 11.7 120.987 12.68 120.987 13.8ZM121.267 32H125.187V17.72H121.267V32Z" fill="#151617"/>
<path d="M127.707 28.08C127.707 30.628 129.499 32.42 132.747 32.42C134.511 32.42 135.687 31.832 136.443 31.244C136.891 30.908 137.255 30.516 137.507 30.04H137.647V32H141.567V23.04C141.567 19.54 139.243 17.3 134.987 17.3C132.019 17.3 130.395 18.56 129.415 19.764C128.855 20.492 128.463 21.304 128.267 22.2H132.327C132.467 21.892 132.635 21.612 132.859 21.36C133.279 20.94 133.895 20.52 134.987 20.52C136.667 20.52 137.647 21.472 137.647 23.04V23.46H133.447C129.779 23.46 127.707 25.532 127.707 28.08ZM131.767 27.576C131.767 26.68 132.607 25.84 133.923 25.84H137.647C137.647 27.828 136.247 29.2 134.007 29.2C132.439 29.2 131.767 28.5 131.767 27.576Z" fill="#151617"/>
<path d="M144.509 32H148.429V24.44C148.429 22.2 149.969 20.66 151.789 20.66C153.609 20.66 154.729 21.752 154.729 23.88V32H158.649V23.32C158.649 19.372 156.549 17.3 153.049 17.3C151.397 17.3 150.361 17.916 149.605 18.504C149.185 18.84 148.821 19.232 148.569 19.68H148.429V17.72H144.509V32Z" fill="#151617"/>
</svg>
