<svg width="101" height="22" viewBox="0 0 101 22" fill="none" xmlns="http://www.w3.org/2000/svg">
<path d="M0.735992 21.168H4.96399V14.532C4.96399 12.516 5.97199 11.116 7.79199 11.116C8.46399 11.116 9.02399 11.228 9.66799 11.452V7.168C9.13599 7.028 8.71599 7 8.29599 7C6.72799 7 5.41199 8.036 4.96399 9.268V7.168H0.735992V21.168Z" fill="#36A0DA"/>
<path d="M18.1448 21.476C21.0848 21.476 23.4088 20.272 24.7248 18.396L21.5888 16.044C21.0568 16.856 19.8528 17.64 18.2008 17.64C16.6048 17.64 15.0368 16.856 14.7848 15.176H24.9488C25.0328 14.504 25.0328 14.056 25.0328 13.692C25.0328 9.156 21.7568 6.86 18.0608 6.86C13.8048 6.86 10.6968 10.024 10.6968 14.168C10.6968 18.676 14.0288 21.476 18.1448 21.476ZM14.8968 12.404C15.2608 10.864 16.7168 10.304 17.9488 10.304C19.1808 10.304 20.4688 10.92 20.8328 12.404H14.8968Z" fill="#36A0DA"/>
<path d="M33.3529 21.476C35.2569 21.476 36.5449 20.524 37.1609 19.768V21.168H41.3889V7.168H37.1609V8.568C36.5449 7.812 35.2569 6.86 33.3529 6.86C29.6849 6.86 26.8569 10.22 26.8569 14.168C26.8569 18.116 29.6849 21.476 33.3529 21.476ZM34.3049 17.64C32.4009 17.64 31.1129 16.184 31.1129 14.168C31.1129 12.152 32.4009 10.696 34.3049 10.696C36.2089 10.696 37.4969 12.152 37.4969 14.168C37.4969 16.184 36.2089 17.64 34.3049 17.64Z" fill="#36A0DA"/>
<path d="M50.5248 21.476C52.4288 21.476 53.7168 20.524 54.3328 19.768V21.168H58.5608V0.167999H54.3328V8.568C53.7168 7.812 52.4288 6.86 50.5248 6.86C46.8568 6.86 44.0288 10.22 44.0288 14.168C44.0288 18.116 46.8568 21.476 50.5248 21.476ZM51.4768 17.64C49.5728 17.64 48.2848 16.184 48.2848 14.168C48.2848 12.152 49.5728 10.696 51.4768 10.696C53.3808 10.696 54.6688 12.152 54.6688 14.168C54.6688 16.184 53.3808 17.64 51.4768 17.64Z" fill="#36A0DA"/>
<path d="M64.1407 5.264C65.6247 5.264 66.8007 4.088 66.8007 2.632C66.8007 1.176 65.6247 0 64.1407 0C62.7127 0 61.5087 1.176 61.5087 2.632C61.5087 4.088 62.7127 5.264 64.1407 5.264ZM62.0407 21.168H66.2687V7.168H62.0407V21.168Z" fill="#36A0DA"/>
<path d="M75.4076 21.476C77.3116 21.476 78.5996 20.524 79.2156 19.768V21.168H83.4436V7.168H79.2156V8.568C78.5996 7.812 77.3116 6.86 75.4076 6.86C71.7396 6.86 68.9116 10.22 68.9116 14.168C68.9116 18.116 71.7396 21.476 75.4076 21.476ZM76.3596 17.64C74.4556 17.64 73.1676 16.184 73.1676 14.168C73.1676 12.152 74.4556 10.696 76.3596 10.696C78.2636 10.696 79.5516 12.152 79.5516 14.168C79.5516 16.184 78.2636 17.64 76.3596 17.64Z" fill="#36A0DA"/>
<path d="M86.9235 21.168H91.1515V14.364C91.1515 11.816 92.3835 10.696 93.9795 10.696C95.5195 10.696 96.2475 11.872 96.2475 13.804V21.168H100.475V13.076C100.475 9.408 98.4875 6.86 95.0435 6.86C93.2235 6.86 91.8235 7.616 91.1515 8.596V7.168H86.9235V21.168Z" fill="#36A0DA"/>
</svg>
