<svg width="107" height="140" viewBox="0 0 107 140" fill="none" xmlns="http://www.w3.org/2000/svg">
<g clip-path="url(#clip0_1893_2196)">
<path d="M77.0003 135.392L65.7883 139.087L47.2803 76.2921L54.6933 73.8491L77.0003 135.392Z" fill="#B3D4FF"/>
<path d="M77.07 89.9988C68.758 96.0288 56.188 97.1528 55.598 89.7018C54.866 80.4518 94.272 61.4968 90.223 107.955L105.55 124.728" stroke="#4A9EFF" stroke-width="2" stroke-miterlimit="10"/>
<path d="M39 77C59.9868 77 77 59.9868 77 39C77 18.0132 59.9868 1 39 1C18.0132 1 1 18.0132 1 39C1 59.9868 18.0132 77 39 77Z" stroke="#4A9EFF" stroke-width="2" stroke-miterlimit="10"/>
<path d="M47.7609 111.001C54.6295 109.331 59.6105 105.562 58.8862 102.584C58.1619 99.6054 52.0066 98.545 45.138 100.215C38.2693 101.886 33.2883 105.654 34.0126 108.633C34.7369 111.611 40.8922 112.672 47.7609 111.001Z" stroke="#4A9EFF" stroke-width="2" stroke-miterlimit="10"/>
<path d="M44.5367 100.092C51.603 99.49 57.1212 96.5345 56.8619 93.4908C56.6025 90.4472 50.6639 88.4679 43.5975 89.07C36.5311 89.6721 31.013 92.6276 31.2723 95.6712C31.5317 98.7149 37.4703 100.694 44.5367 100.092Z" stroke="#4A9EFF" stroke-width="2" stroke-miterlimit="10"/>
<path d="M53.6107 121.003C59.7897 118.418 63.8341 114.016 62.6441 111.172C61.4541 108.328 55.4804 108.119 49.3014 110.704C43.1224 113.29 39.078 117.691 40.2679 120.535C41.4579 123.379 47.4317 123.589 53.6107 121.003Z" stroke="#4A9EFF" stroke-width="2" stroke-miterlimit="10"/>
<path d="M59.8885 129.349C64.7178 127.102 67.6698 123.211 66.482 120.658C65.2941 118.104 60.4163 117.855 55.587 120.102C50.7577 122.349 47.8057 126.24 48.9935 128.793C50.1814 131.347 55.0592 131.595 59.8885 129.349Z" stroke="#4A9EFF" stroke-width="2" stroke-miterlimit="10"/>
</g>
<defs>
<clipPath id="clip0_1893_2196">
<rect width="106.29" height="139.087" fill="white"/>
</clipPath>
</defs>
</svg>
