<svg width="88" height="138" viewBox="0 0 88 138" fill="none" xmlns="http://www.w3.org/2000/svg">
<g clip-path="url(#clip0_505_4418)">
<path d="M55.541 61.244C63.407 96.715 57.383 110.795 56.714 113.564C56.132 115.975 59.829 116.923 61.017 112.26" stroke="#63C8FF" stroke-width="2" stroke-miterlimit="10"/>
<path d="M64.772 111.85C64.426 113.79 63.416 117.748 60.654 120.893C59.158 122.597 56.553 121.323 58.118 118.731C58.118 118.731 61.239 114.226 61.465 109.372" stroke="#63C8FF" stroke-width="2" stroke-miterlimit="10"/>
<path d="M59.628 55.979C59.628 55.979 79.04 113.619 67.591 122C65.725 123.366 64.504 121.174 65.754 119.486" stroke="#63C8FF" stroke-width="2" stroke-miterlimit="10"/>
<path d="M68.03 112.382C67.896 114.395 67.22 118.431 64.104 121.517C62.488 123.117 60.69 121.2 62.123 118.909" stroke="#63C8FF" stroke-width="2" stroke-miterlimit="10"/>
<path d="M33.205 61.244C25.339 96.715 31.363 110.795 32.032 113.564C32.614 115.975 28.917 116.923 27.729 112.26" stroke="#63C8FF" stroke-width="2" stroke-miterlimit="10"/>
<path d="M23.974 111.85C24.32 113.79 25.33 117.748 28.092 120.893C29.588 122.597 32.193 121.323 30.628 118.731C30.628 118.731 27.507 114.226 27.281 109.372" stroke="#63C8FF" stroke-width="2" stroke-miterlimit="10"/>
<path d="M29.118 55.979C29.118 55.979 9.706 113.619 21.155 122C23.021 123.366 24.242 121.174 22.992 119.486" stroke="#63C8FF" stroke-width="2" stroke-miterlimit="10"/>
<path d="M52 129L48 51H40L36 129C36 129 20 130.8 20 137H68C68 130.745 52 129 52 129Z" stroke="#63C8FF" stroke-width="2" stroke-miterlimit="10"/>
<path d="M44 94V137" stroke="#63C8FF" stroke-width="2" stroke-miterlimit="10"/>
<path d="M88 65H0L25.58 0H62.42L88 65Z" fill="#36A0DA"/>
<path d="M34 51C36.7614 51 39 49.6569 39 48C39 46.3431 36.7614 45 34 45C31.2386 45 29 46.3431 29 48C29 49.6569 31.2386 51 34 51Z" fill="white"/>
<path d="M54 51C56.7614 51 59 49.6569 59 48C59 46.3431 56.7614 45 54 45C51.2386 45 49 46.3431 49 48C49 49.6569 51.2386 51 54 51Z" fill="white"/>
<path d="M24 42.0001C30 37.0001 38 36.0001 44 41.0001C50 36.0001 58 37.0001 64 42.0001" stroke="#010101" stroke-width="2" stroke-miterlimit="10"/>
<path d="M34 50C35.1046 50 36 49.1046 36 48C36 46.8954 35.1046 46 34 46C32.8954 46 32 46.8954 32 48C32 49.1046 32.8954 50 34 50Z" fill="#010101"/>
<path d="M54 50C55.1046 50 56 49.1046 56 48C56 46.8954 55.1046 46 54 46C52.8954 46 52 46.8954 52 48C52 49.1046 52.8954 50 54 50Z" fill="#010101"/>
<path d="M20.716 112.382C20.85 114.395 21.526 118.431 24.642 121.517C26.258 123.117 28.056 121.2 26.623 118.909" stroke="#63C8FF" stroke-width="2" stroke-miterlimit="10"/>
</g>
<defs>
<clipPath id="clip0_505_4418">
<rect width="88" height="138" fill="white"/>
</clipPath>
</defs>
</svg>
